<svg fill="#fa314a" xmlns="http://www.w3.org/2000/svg"  viewBox="0 0 512 512" width="64px" height="64px"><path d="M 22 69 L 22 354 L 268.98438 354 C 265.23638 349 261.88419 345 258.99219 340 L 42.378906 340 A 6.729 6.729 0 0 1 36 333.55273 L 36 275.65234 L 34.957031 275.25195 L 36 272.56641 L 36 69 L 22 69 z M 352 118.68555 L 321.91797 150.49023 A 6 6 0 0 1 314.29688 151.4043 L 281.76953 130.33203 L 248.52734 169.45117 A 6 6 0 0 1 241.62695 171.09766 L 229.53516 166.00781 L 206.98633 198.64844 A 6 6 0 0 1 197.76367 199.4375 L 163.95703 164.9375 L 148.41211 219.58203 A 6 6 0 0 1 139.47461 223.03906 L 129.97461 217.14648 L 107.79492 245.24609 A 6.078 6.078 0 0 1 98.689453 245.69141 L 70.712891 216.7207 L 48 274.81055 L 48 302.13477 L 57.839844 284.04102 A 6.261 6.261 0 0 1 64.589844 281 L 92.689453 287.07617 L 118.40039 244.5 A 6 6 0 0 1 127.11133 242.78125 L 149.55469 259.43359 L 187.82031 212.39844 A 6 6 0 0 1 196.0918 211.39844 L 234.23828 240.19922 L 257.63867 211.51758 A 6 6 0 0 1 265.47266 210.22461 L 281.61328 220.33789 A 93.025 93.025 0 0 1 340.125 199.69922 A 94.036 94.036 0 0 1 352 200.45117 L 352 118.68555 z M 340.125 211.69922 A 81.566 81.566 0 0 0 258.65234 293.17188 A 81.474 81.474 0 1 0 340.125 211.69922 z M 263.58789 223.19922 L 239.88281 252.25781 A 6 6 0 0 1 231.61719 253.25781 L 193.47656 224.45703 L 155.24023 271.45703 A 6 6 0 0 1 147.01172 272.49609 L 125.25977 256.375 L 100.74609 297 A 6.029 6.029 0 0 1 94.345703 299.82031 L 66.486328 293.9082 L 48.421875 328 L 253.19922 328 A 95.579 95.579 0 0 1 246.64844 293.39453 A 93.694 93.694 0 0 1 272.44727 228.75586 L 263.58789 223.19922 z M 340.125 225 A 68.243 68.243 0 0 1 408.29297 293.17188 A 68.167 68.167 0 1 1 340.125 225 z M 340.12695 237.00391 A 56.167 56.167 0 1 0 340.12695 349.33789 A 56.167 56.167 0 1 0 340.12695 237.00391 z M 405.16211 352.29883 A 6.0001546 6.0001546 0 0 0 401.00781 362.54102 L 420.66406 382.19922 A 5.939 5.939 0 0 0 422.375 383.37305 L 417.52734 388.21875 L 468.6543 439.34766 A 12.387097 12.387097 0 0 0 486.17383 421.82812 L 435.04688 370.69922 L 430.32227 375.42383 A 5.957 5.957 0 0 0 429.14844 373.71289 L 409.49219 354.05469 A 6.0001546 6.0001546 0 0 0 405.16211 352.29883 z"/></svg>