<svg xmlns="http://www.w3.org/2000/svg"  viewBox="0 0 520 520" width="64px" height="64px"><polygon fill="#f14742" points="424.999,190 424.999,150 384.999,150 384.999,110 344.999,110 344.999,150 304.999,150 304.999,190 264.999,190 224.999,190 224.999,150 184.999,150 184.999,110 144.999,110 144.999,150 104.999,150 104.999,190 64.999,190 64.999,230 64.999,270 104.999,270 104.999,310 144.999,310 144.999,350 184.999,350 184.999,390 224.999,390 224.999,430 264.999,430 304.999,430 304.999,390 344.999,390 344.999,350 384.999,350 384.999,310 424.999,310 424.999,270 464.999,270 464.999,230 464.999,190"/><rect width="40" height="40" x="424.999" y="190" fill="#b53532"/><rect width="40" height="40" x="384.999" y="230" fill="#b53532"/><rect width="40" height="40" x="384.999" y="150" fill="#b53532"/><rect width="40" height="40" x="344.999" y="270" fill="#b53532"/><rect width="40" height="40" x="344.999" y="190" fill="#b53532"/><rect width="40" height="40" x="304.999" y="310" fill="#b53532"/><rect width="40" height="40" x="304.999" y="230" fill="#b53532"/><rect width="40" height="40" x="304.999" y="150" fill="#b53532"/><rect width="40" height="40" x="264.999" y="350" fill="#b53532"/><rect width="40" height="40" x="264.999" y="270" fill="#b53532"/><rect width="40" height="40" x="264.999" y="190" fill="#b53532"/><rect width="40" height="40" x="224.999" y="390" fill="#b53532"/><rect width="40" height="40" x="224.999" y="310" fill="#b53532"/><rect width="40" height="40" x="224.999" y="230" fill="#b53532"/><rect width="40" height="40" x="184.999" y="350" fill="#b53532"/><rect width="40" height="40" x="184.999" y="270" fill="#b53532"/><rect width="40" height="40" x="184.999" y="190" fill="#b53532"/><rect width="40" height="40" x="184.999" y="150" fill="#b53532"/><rect width="40" height="40" x="144.999" y="310" fill="#b53532"/><rect width="40" height="40" x="144.999" y="230" fill="#b53532"/><rect width="40" height="40" x="104.999" y="270" fill="#b53532"/><rect width="40" height="40" x="104.999" y="190" fill="#b53532"/><rect width="40" height="40" x="104.999" y="150" fill="#b53532"/><rect width="40" height="40" x="64.999" y="230" fill="#b53532"/><path fill="#d7deed" d="M459.999,360c-13.81,0-25,11.19-25,25s11.19,25,25,25c13.811,0,25-11.19,25-25 S473.81,360,459.999,360z"/><path fill="#d7deed" d="M465.009,140.01c1.5,0,3.03-0.34,4.461-1.06c3.5-1.75,5.529-5.28,5.529-8.95 c0-1.51-0.34-3.03-1.06-4.47c-1.75-3.5-5.28-5.53-8.95-5.53c-1.5,0-3.02,0.34-4.46,1.06c-4.94,2.47-6.94,8.47-4.48,13.41 C457.81,137.98,461.339,140.01,465.009,140.01z"/><path fill="#d7deed" d="M394.989,379.99c-1.5,0-3.02,0.34-4.46,1.06c-4.94,2.47-6.94,8.48-4.48,13.42 c1.761,3.5,5.29,5.53,8.95,5.53c1.51,0,3.03-0.34,4.471-1.06c3.5-1.75,5.529-5.28,5.529-8.95c0-1.51-0.34-3.03-1.06-4.471 C402.189,382.02,398.659,379.99,394.989,379.99z"/><path fill="#d7deed" d="M389.47,78.95c3.5-1.75,5.529-5.28,5.529-8.95c0-1.51-0.34-3.03-1.06-4.47 c-1.75-3.5-5.28-5.53-8.95-5.53c-1.5,0-3.02,0.34-4.46,1.06c-4.94,2.47-6.94,8.47-4.48,13.41c1.761,3.51,5.29,5.54,8.96,5.54 C386.509,80.01,388.039,79.67,389.47,78.95z"/><path fill="#d7deed" d="M269.999,60c-8.279,0-15,6.72-15,15c0,8.29,6.721,15,15,15c8.28,0,15-6.71,15-15 C284.999,66.72,278.279,60,269.999,60z"/><path fill="#d7deed" d="M264.989,120c-1.5,0-3.03,0.34-4.46,1.06c-4.95,2.47-6.95,8.48-4.48,13.42 c1.75,3.5,5.28,5.53,8.95,5.53c1.51,0,3.03-0.34,4.471-1.06c3.5-1.75,5.529-5.28,5.529-8.95c0-1.51-0.34-3.03-1.06-4.47 C272.189,122.03,268.659,120,264.989,120z"/><path fill="#d7deed" d="M154.979,439.99c-1.5,0-3.021,0.34-4.45,1.06c-4.95,2.47-6.95,8.48-4.48,13.42 c1.75,3.5,5.28,5.53,8.95,5.53c1.51,0,3.03-0.34,4.471-1.06c3.5-1.75,5.529-5.28,5.529-8.95c0-1.5-0.34-3.021-1.06-4.46 C162.189,442.02,158.649,439.99,154.979,439.99z"/><path fill="#d7deed" d="M104.989,70c-1.5,0-3.02,0.34-4.46,1.06c-4.94,2.47-6.95,8.47-4.48,13.41 c1.75,3.51,5.29,5.54,8.96,5.54c1.5,0,3.03-0.34,4.461-1.06c3.5-1.75,5.529-5.28,5.529-8.95c0-1.51-0.34-3.03-1.06-4.47 C112.189,72.03,108.659,70,104.989,70z"/><path fill="#d7deed" d="M84.999,400c-11.05,0-20,8.96-20,20c0,11.05,8.95,20,20,20s20-8.95,20-20 C104.999,408.96,96.049,400,84.999,400z"/><path fill="#d7deed" d="M44.999,330c-1.51,0-3.029,0.34-4.47,1.06c-4.94,2.471-6.94,8.48-4.47,13.421 c1.75,3.5,5.279,5.529,8.949,5.529c1.5,0,3.021-0.34,4.461-1.06c3.51-1.75,5.539-5.29,5.539-8.96c0-1.5-0.34-3.03-1.06-4.46 C52.199,332.03,48.669,330,44.999,330z"/></svg>